<svg xmlns="http://www.w3.org/2000/svg" viewBox="0 0 512 512"><!--!Font Awesome Free 6.7.2 by @fontawesome - https://fontawesome.com License - https://fontawesome.com/license/free Copyright 2025 Fonticons, Inc.--><path d="M256 8C119 8 8 119 8 256s111 248 248 248 248-111 248-248S393 8 256 8zm117.1 346.8c-1.6 1.9-39.8 45.7-109.9 45.7-84.7 0-144.5-63.3-144.5-145.6 0-81.3 62-143.4 143.8-143.4 67 0 102 37.3 103.4 38.9a12 12 0 0 1 1.2 14.6l-22.4 34.7c-4 6.3-12.8 7.4-18.2 2.3-.2-.2-26.5-23.9-61.9-23.9-46.1 0-73.9 33.6-73.9 76.1 0 39.6 25.5 79.7 74.3 79.7 38.7 0 65.3-28.3 65.5-28.6 5.1-5.6 14.1-5 18.5 1.1l24.5 33.6a12 12 0 0 1 -.6 14.9z"/></svg>